solid Exported from Blender-2.76 (sub 0)
facet normal -0.038088 0.226711 -0.973217
outer loop
vertex -23.676659082 8.88275828371 27.9602962988
vertex -22.653412082 28.9433082837 32.5933412988
vertex -18.454052082 8.75726228371 27.7266652988
endloop
endfacet
facet normal 0.154369 0.958941 0.237912
outer loop
vertex 1.79291291802 18.8614282837 1.02035829881
vertex 12.767789918 14.0749782837 13.1918672988
vertex 33.801569918 12.1365442837 7.35731829881
endloop
endfacet
facet normal -0.821817 0.357641 0.443520
outer loop
vertex -17.827275082 -13.3092507163 -25.8976027012
vertex -18.514439082 -8.56866571629 -30.9935307012
vertex -20.160035082 -12.3183547163 -31.0191007012
endloop
endfacet
facet normal 0.099147 -0.970688 -0.218940
outer loop
vertex 0.0131609180151 -18.2034617163 -8.15201970119
vertex 2.57750091802 -20.1775087163 1.76135629881
vertex -8.83355608198 -18.6024887163 -10.3891267012
endloop
endfacet
facet normal 0.556441 0.476882 -0.680409
outer loop
vertex 36.323519918 8.78298728371 -22.8573897012
vertex 36.078238918 -2.57583571629 -31.0191007012
vertex 28.744906918 5.98092028371 -31.0191007012
endloop
endfacet
facet normal 0.891739 -0.423039 -0.160749
outer loop
vertex 48.072184918 -6.49141771629 -23.2836727012
vertex 50.530230918 -4.94246071629 -13.7242777012
vertex 47.921240918 -9.91619171629 -15.1081297012
endloop
endfacet
facet normal 0.728471 -0.418575 -0.542333
outer loop
vertex -20.367159082 -24.2892637163 14.9810822988
vertex -21.960446082 -23.5009047163 12.2324942988
vertex -19.218560082 -16.3959167163 10.4317892988
endloop
endfacet
facet normal -0.881135 -0.062196 -0.468757
outer loop
vertex -32.126507082 1.53862128371 -2.32808370119
vertex -28.365551082 3.20434728371 -9.61866970119
vertex -32.148362082 -7.84225171629 -1.04232070119
endloop
endfacet
facet normal -0.854101 -0.103280 -0.509749
outer loop
vertex -28.365551082 3.20434728371 -9.61866970119
vertex -25.875580082 -10.1667317163 -11.0816107012
vertex -32.148362082 -7.84225171629 -1.04232070119
endloop
endfacet
facet normal -0.354909 -0.900355 -0.251796
outer loop
vertex 9.48295591802 -22.1109017163 -24.8077547012
vertex 16.131758918 -25.4522617163 -22.2315257012
vertex 6.31974691802 -21.3086727163 -23.2177357012
endloop
endfacet
facet normal -0.257817 -0.455691 0.851984
outer loop
vertex 7.83774091802 -26.0614327163 0.206079298813
vertex 13.061817918 -20.0975337163 4.97676829881
vertex 2.57750091802 -20.1775087163 1.76135629881
endloop
endfacet
facet normal -0.489388 -0.531542 0.691348
outer loop
vertex -4.56272608198 -18.3567137163 -26.8608747012
vertex -1.10090408198 -23.4635227163 -28.3366987012
vertex 3.93612691802 -24.3636527163 -25.4631807012
endloop
endfacet
facet normal -0.090289 -0.594941 0.798682
outer loop
vertex -10.435368082 -13.0561267163 14.2810622988
vertex 10.322251918 -14.5500767163 15.5148122988
vertex 8.25857191802 -7.05912271629 20.8615602988
endloop
endfacet
facet normal -0.201131 -0.473399 0.857578
outer loop
vertex 3.93612691802 -24.3636527163 -25.4631807012
vertex 6.31974691802 -21.3086727163 -23.2177357012
vertex 1.13030791802 -15.5940507163 -21.2802547012
endloop
endfacet
facet normal 0.188811 -0.672971 0.715165
outer loop
vertex 3.93612691802 -24.3636527163 -25.4631807012
vertex 9.48295591802 -22.1109017163 -24.8077547012
vertex 6.31974691802 -21.3086727163 -23.2177357012
endloop
endfacet
facet normal 0.032749 -0.761381 0.647477
outer loop
vertex 42.759249918 -13.0618217163 -18.7134517012
vertex 43.135436918 -6.03271171629 -10.4668027012
vertex 39.459807918 -11.9531487163 -17.2428557012
endloop
endfacet
facet normal 0.533422 0.060499 0.843683
outer loop
vertex 33.771677918 -7.78174171629 14.8500592988
vertex 35.768736918 2.55599728371 12.8461102988
vertex 31.302559918 6.36229428371 15.3969382988
endloop
endfacet
facet normal 0.190077 0.267297 -0.944682
outer loop
vertex -22.653412082 28.9433082837 32.5933412988
vertex -20.045777082 31.1941022837 33.7548862988
vertex -18.454052082 8.75726228371 27.7266652988
endloop
endfacet
facet normal 0.803997 -0.496637 0.327017
outer loop
vertex 9.31423591802 10.7832742837 38.8856462988
vertex 11.634223918 16.0993142837 41.2551762988
vertex 4.78112691802 11.8399152837 51.6353482988
endloop
endfacet
facet normal -0.528017 0.369659 -0.764559
outer loop
vertex -27.016099082 26.7681972837 42.8730802988
vertex -19.651930082 37.3306892837 42.8941532988
vertex -25.552311082 7.20351728371 32.4027592988
endloop
endfacet
facet normal -0.570905 -0.347537 0.743832
outer loop
vertex -25.845952082 -14.2687927163 33.3708602988
vertex -29.001019082 -6.56329271629 34.5494722988
vertex -33.284791082 -3.90423671629 32.5039552988
endloop
endfacet
facet normal -0.662927 0.565233 0.490958
outer loop
vertex 9.25942991802 19.7472182837 51.2529022988
vertex -16.772126082 3.57906628371 34.7173112988
vertex 7.56744291802 16.3225502837 52.9110292988
endloop
endfacet
facet normal -0.798277 -0.583864 0.147840
outer loop
vertex -4.81735908198 -19.0614707163 -31.0191007012
vertex -1.10090408198 -23.4635227163 -28.3366987012
vertex -4.56272608198 -18.3567137163 -26.8608747012
endloop
endfacet
facet normal -0.727187 0.496667 0.473837
outer loop
vertex 4.49709891802 24.1191472837 -0.340629701187
vertex 0.793063918015 24.5337892837 -6.45973970119
vertex 1.79291291802 18.8614282837 1.02035829881
endloop
endfacet
facet normal -0.752283 0.472657 0.458985
outer loop
vertex 0.793063918015 24.5337892837 -6.45973970119
vertex -2.07797208198 18.2363882837 -4.68042970119
vertex 1.79291291802 18.8614282837 1.02035829881
endloop
endfacet
facet normal -0.560963 0.248542 -0.789650
outer loop
vertex -14.805581082 3.69995828371 -19.0956117012
vertex -20.585619082 -4.05994571629 -17.4319307012
vertex -28.365551082 3.20434728371 -9.61866970119
endloop
endfacet
facet normal -0.544073 0.416212 0.728528
outer loop
vertex -15.904574082 2.12792428371 -24.1644867012
vertex -20.490620082 8.13120528371 -31.0191007012
vertex -21.822260082 0.569478283711 -27.6935317012
endloop
endfacet
facet normal 0.583490 -0.730940 -0.353930
outer loop
vertex -10.160740082 -0.0725827162891 29.1987912988
vertex 9.31423591802 10.7832742837 38.8856462988
vertex -2.44447408198 2.43806728371 36.7348212988
endloop
endfacet
facet normal -0.993101 0.076040 0.089266
outer loop
vertex -32.148362082 -7.84225171629 -1.04232070119
vertex -31.035130082 -5.58084271629 9.41617929881
vertex -30.450676082 1.38900928371 9.98111629881
endloop
endfacet
facet normal -0.693046 -0.718428 -0.059576
outer loop
vertex -24.574658082 -15.9458367163 8.57422929881
vertex -32.148362082 -7.84225171629 -1.04232070119
vertex -19.356801082 -19.9293627163 -4.08761070119
endloop
endfacet
facet normal -0.504326 0.597275 0.623633
outer loop
vertex -18.514439082 -8.56866571629 -30.9935307012
vertex -17.827275082 -13.3092507163 -25.8976027012
vertex -12.395154082 -11.7720897163 -22.9768927012
endloop
endfacet
facet normal 0.283125 -0.336848 -0.897983
outer loop
vertex -19.218560082 -16.3959167163 10.4317892988
vertex -21.960446082 -23.5009047163 12.2324942988
vertex -24.574658082 -15.9458367163 8.57422929881
endloop
endfacet
facet normal -0.720419 -0.101961 -0.686003
outer loop
vertex -34.422764082 -18.9607787163 14.9624282988
vertex -31.035130082 -5.58084271629 9.41617929881
vertex -31.894787082 -20.9815227163 12.6079672988
endloop
endfacet
facet normal 0.000000 0.000000 -1.000000
outer loop
vertex -18.576163082 -18.7611097163 -31.0191007012
vertex -20.160035082 -12.3183547163 -31.0191007012
vertex 24.015770918 16.5849732837 -31.0191007012
endloop
endfacet
facet normal -0.006099 -0.618169 -0.786022
outer loop
vertex 16.131758918 -25.4522617163 -22.2315257012
vertex 9.48295591802 -22.1109017163 -24.8077547012
vertex 23.125754918 -20.2622827163 -26.3674707012
endloop
endfacet
facet normal -0.040750 -0.999000 0.018414
outer loop
vertex 36.112017918 -12.8781237163 -23.4578557012
vertex 40.534316918 -13.0746677163 -24.3343567012
vertex 42.759249918 -13.0618217163 -18.7134517012
endloop
endfacet
facet normal 0.409460 0.763358 0.499627
outer loop
vertex -11.646847082 4.67872928371 28.8368482988
vertex -16.901635082 6.31227728371 30.6474942988
vertex -16.772126082 3.57906628371 34.7173112988
endloop
endfacet
facet normal -0.620576 -0.783981 -0.016095
outer loop
vertex -30.979500082 -21.8921427163 21.6733392988
vertex -31.894787082 -20.9815227163 12.6079672988
vertex -27.199223082 -24.8802077163 21.4645492988
endloop
endfacet
facet normal 0.930399 -0.159245 0.330149
outer loop
vertex -18.698182082 38.0758922837 48.5466572988
vertex -19.302254082 4.71383928371 34.1570462988
vertex -16.788401082 38.9403792837 43.5816532988
endloop
endfacet
facet normal -0.320612 -0.905375 0.278396
outer loop
vertex 2.47402691802 -25.5542957163 -31.0191007012
vertex 3.93612691802 -24.3636527163 -25.4631807012
vertex -1.10090408198 -23.4635227163 -28.3366987012
endloop
endfacet
facet normal 0.924744 0.334299 0.181913
outer loop
vertex -10.160740082 -0.0725827162891 29.1987912988
vertex -7.10462208198 -3.85725871629 20.6182402988
vertex -10.885932082 6.43417628371 20.9278522988
endloop
endfacet
facet normal -0.568084 0.680388 -0.462982
outer loop
vertex -25.101681082 7.66500128371 12.6408992988
vertex -30.450676082 1.38900928371 9.98111629881
vertex -32.819150082 1.08587028371 12.4417792988
endloop
endfacet
facet normal -0.940741 0.339079 -0.005673
outer loop
vertex -13.729180082 8.13742928371 -25.7126627012
vertex -15.904574082 2.12792428371 -24.1644867012
vertex -13.277030082 9.56655628371 -15.2726297012
endloop
endfacet
facet normal -0.975251 0.145775 0.166236
outer loop
vertex -15.904574082 2.12792428371 -24.1644867012
vertex -14.805581082 3.69995828371 -19.0956117012
vertex -13.277030082 9.56655628371 -15.2726297012
endloop
endfacet
facet normal -0.369399 -0.531793 -0.762063
outer loop
vertex -25.875580082 -10.1667317163 -11.0816107012
vertex -12.945973082 -8.67764571629 -18.3881837012
vertex -16.136851082 -18.2634727163 -10.1521397012
endloop
endfacet
facet normal 0.100553 -0.066261 0.992723
outer loop
vertex 18.599308918 -7.85645171629 -31.0191007012
vertex 25.462498918 2.55858228371 -31.0191007012
vertex 25.390290918 2.54616228371 -31.0126157012
endloop
endfacet
facet normal 0.413379 -0.357703 -0.837357
outer loop
vertex 40.534316918 -13.0746677163 -24.3343567012
vertex 34.687788918 -10.9438427163 -28.1308697012
vertex 36.078238918 -2.57583571629 -31.0191007012
endloop
endfacet
facet normal 0.027821 0.279047 0.959874
outer loop
vertex -15.800290082 0.0987462837109 35.7009152988
vertex -16.772126082 3.57906628371 34.7173112988
vertex -25.015389082 4.01417828371 34.8297382988
endloop
endfacet
facet normal 0.626723 0.613255 -0.480767
outer loop
vertex 29.351469918 18.6914282837 -21.3765947012
vertex 30.249731918 15.1391172837 -24.7368737012
vertex 24.015770918 16.5849732837 -31.0191007012
endloop
endfacet
facet normal 0.110782 0.930699 -0.348607
outer loop
vertex 29.351469918 18.6914282837 -21.3765947012
vertex 5.51116091802 20.0542472837 -25.3142567012
vertex 4.32682091802 25.9616882837 -9.91912170119
endloop
endfacet
facet normal -0.203739 0.960721 0.188429
outer loop
vertex 0.793063918015 24.5337892837 -6.45973970119
vertex 4.49709891802 24.1191472837 -0.340629701187
vertex 4.32682091802 25.9616882837 -9.91912170119
endloop
endfacet
facet normal -0.401999 0.897804 0.179849
outer loop
vertex 4.49709891802 24.1191472837 -0.340629701187
vertex 7.63357591802 26.0326282837 -2.88203070119
vertex 4.32682091802 25.9616882837 -9.91912170119
endloop
endfacet
facet normal -0.858991 -0.405860 0.312111
outer loop
vertex -15.904574082 2.12792428371 -24.1644867012
vertex -11.396840082 -4.48171871629 -20.3533097012
vertex -14.805581082 3.69995828371 -19.0956117012
endloop
endfacet
facet normal -0.817935 -0.525541 -0.234072
outer loop
vertex 6.31974691802 -21.3086727163 -23.2177357012
vertex 4.21571591802 -26.2455897163 -4.78103470119
vertex 0.0131609180151 -18.2034617163 -8.15201970119
endloop
endfacet
facet normal 0.686766 -0.588592 0.426511
outer loop
vertex 28.569952918 -12.6747787163 16.4733762988
vertex 31.096890918 -20.8061417163 1.18310129881
vertex 33.771677918 -7.78174171629 14.8500592988
endloop
endfacet
facet normal -0.630443 0.771539 -0.085259
outer loop
vertex -22.355790082 35.8445862837 49.4394712988
vertex -19.651930082 37.3306892837 42.8941532988
vertex -25.664048082 32.9950222837 48.1154512988
endloop
endfacet
facet normal 0.519507 -0.838018 -0.166850
outer loop
vertex 23.125754918 -20.2622827163 -26.3674707012
vertex 39.459807918 -11.9531487163 -17.2428557012
vertex 31.096890918 -20.8061417163 1.18310129881
endloop
endfacet
facet normal 0.929910 -0.068393 0.361371
outer loop
vertex -7.10462208198 -3.85725871629 20.6182402988
vertex -10.160740082 -0.0725827162891 29.1987912988
vertex -12.367730082 -2.43722271629 34.4304612988
endloop
endfacet
facet normal -0.894159 -0.309442 0.323613
outer loop
vertex -33.284791082 -3.90423671629 32.5039552988
vertex -34.422764082 -18.9607787163 14.9624282988
vertex -30.979500082 -21.8921427163 21.6733392988
endloop
endfacet
facet normal 0.958535 0.069940 0.276259
outer loop
vertex 42.809138918 2.42990028371 -11.4771237012
vertex 38.985537918 11.6960132837 -0.556309701187
vertex 43.135436918 -6.03271171629 -10.4668027012
endloop
endfacet
facet normal 0.777255 0.568060 -0.270522
outer loop
vertex 46.672076918 6.14070028371 -17.3993227012
vertex 49.910597918 1.73222928371 -17.3516817012
vertex 47.996668918 1.70306028371 -22.9119687012
endloop
endfacet
facet normal -0.336478 0.892362 -0.300787
outer loop
vertex -18.309723082 36.5426832837 38.1701082988
vertex -20.571774082 35.0278752837 36.2064852988
vertex -16.788401082 38.9403792837 43.5816532988
endloop
endfacet
facet normal 0.541841 0.357663 0.760583
outer loop
vertex 10.822715918 20.4702102837 49.7992432988
vertex 9.25942991802 19.7472182837 51.2529022988
vertex 9.68931591802 19.1100722837 51.2462722988
endloop
endfacet
facet normal -0.402295 -0.251144 0.880390
outer loop
vertex -10.838891082 -15.8653237163 -23.4334127012
vertex -12.395154082 -11.7720897163 -22.9768927012
vertex -17.827275082 -13.3092507163 -25.8976027012
endloop
endfacet
facet normal -0.364336 -0.103922 0.925451
outer loop
vertex -10.838891082 -15.8653237163 -23.4334127012
vertex -17.827275082 -13.3092507163 -25.8976027012
vertex -16.272267082 -18.8925487163 -25.9123887012
endloop
endfacet
facet normal 0.365161 -0.882854 0.295341
outer loop
vertex -12.367730082 -2.43722271629 34.4304612988
vertex -2.44447408198 2.43806728371 36.7348212988
vertex -0.594086081985 6.70997128371 47.2168612988
endloop
endfacet
facet normal 0.533097 -0.812209 0.236905
outer loop
vertex -0.594086081985 6.70997128371 47.2168612988
vertex -2.44447408198 2.43806728371 36.7348212988
vertex 9.31423591802 10.7832742837 38.8856462988
endloop
endfacet
facet normal -0.117458 0.307635 0.944227
outer loop
vertex 21.418021918 0.936798283711 22.6044192988
vertex -3.95391908198 10.6547192837 16.2820772988
vertex -7.10462208198 -3.85725871629 20.6182402988
endloop
endfacet
facet normal 0.479329 0.635428 0.605372
outer loop
vertex 31.302559918 6.36229428371 15.3969382988
vertex 33.801569918 12.1365442837 7.35731829881
vertex 25.544974918 10.6699942837 15.4341802988
endloop
endfacet
facet normal 0.679609 -0.164487 0.714895
outer loop
vertex 4.49709891802 24.1191472837 -0.340629701187
vertex 1.79291291802 18.8614282837 1.02035829881
vertex 7.63357591802 26.0326282837 -2.88203070119
endloop
endfacet
facet normal -0.061069 0.515011 0.855005
outer loop
vertex 1.79291291802 18.8614282837 1.02035829881
vertex 33.801569918 12.1365442837 7.35731829881
vertex 7.63357591802 26.0326282837 -2.88203070119
endloop
endfacet
facet normal -0.100778 0.891590 0.441488
outer loop
vertex 12.767789918 14.0749782837 13.1918672988
vertex 1.79291291802 18.8614282837 1.02035829881
vertex -3.95391908198 10.6547192837 16.2820772988
endloop
endfacet
facet normal 0.484645 0.152156 0.861375
outer loop
vertex -3.95391908198 10.6547192837 16.2820772988
vertex -10.885932082 6.43417628371 20.9278522988
vertex -7.10462208198 -3.85725871629 20.6182402988
endloop
endfacet
facet normal -0.053782 -0.955226 -0.290950
outer loop
vertex -8.83355608198 -18.6024887163 -10.3891267012
vertex -19.356801082 -19.9293627163 -4.08761070119
vertex -16.136851082 -18.2634727163 -10.1521397012
endloop
endfacet
facet normal -0.056537 -0.828439 -0.557218
outer loop
vertex -16.136851082 -18.2634727163 -10.1521397012
vertex -10.976937082 -15.1509297163 -15.3032347012
vertex -8.83355608198 -18.6024887163 -10.3891267012
endloop
endfacet
facet normal -0.237894 -0.672902 0.700435
outer loop
vertex -15.800290082 0.0987462837109 35.7009152988
vertex -12.367730082 -2.43722271629 34.4304612988
vertex -0.594086081985 6.70997128371 47.2168612988
endloop
endfacet
facet normal -0.595350 0.420680 0.684534
outer loop
vertex -25.015389082 4.01417828371 34.8297382988
vertex -25.552311082 7.20351728371 32.4027592988
vertex -33.284791082 -3.90423671629 32.5039552988
endloop
endfacet
facet normal -0.369197 0.114677 0.922249
outer loop
vertex -33.284791082 -3.90423671629 32.5039552988
vertex -29.001019082 -6.56329271629 34.5494722988
vertex -25.015389082 4.01417828371 34.8297382988
endloop
endfacet
facet normal 0.717660 0.565680 -0.406164
outer loop
vertex 29.351469918 18.6914282837 -21.3765947012
vertex 36.323519918 8.78298728371 -22.8573897012
vertex 30.249731918 15.1391172837 -24.7368737012
endloop
endfacet
facet normal 0.824878 0.539479 -0.168932
outer loop
vertex 38.985537918 11.6960132837 -0.556309701187
vertex 42.809138918 2.42990028371 -11.4771237012
vertex 36.323519918 8.78298728371 -22.8573897012
endloop
endfacet
facet normal 0.793573 0.583952 -0.171004
outer loop
vertex 29.351469918 18.6914282837 -21.3765947012
vertex 38.985537918 11.6960132837 -0.556309701187
vertex 36.323519918 8.78298728371 -22.8573897012
endloop
endfacet
facet normal -0.337965 -0.938029 0.076686
outer loop
vertex -10.976937082 -15.1509297163 -15.3032347012
vertex -10.838891082 -15.8653237163 -23.4334127012
vertex -6.60982908198 -17.4181317163 -23.7894787012
endloop
endfacet
facet normal -0.702643 -0.689047 -0.177500
outer loop
vertex -10.976937082 -15.1509297163 -15.3032347012
vertex -6.60982908198 -17.4181317163 -23.7894787012
vertex -8.83355608198 -18.6024887163 -10.3891267012
endloop
endfacet
facet normal 0.064409 -0.994929 -0.077246
outer loop
vertex -6.60982908198 -17.4181317163 -23.7894787012
vertex 0.0131609180151 -18.2034617163 -8.15201970119
vertex -8.83355608198 -18.6024887163 -10.3891267012
endloop
endfacet
facet normal 0.471015 0.275670 -0.837944
outer loop
vertex 47.996668918 1.70306028371 -22.9119687012
vertex 36.078238918 -2.57583571629 -31.0191007012
vertex 43.221381918 6.63060028371 -23.9751177012
endloop
endfacet
facet normal 0.551347 0.042874 -0.833173
outer loop
vertex 47.996668918 1.70306028371 -22.9119687012
vertex 48.072184918 -6.49141771629 -23.2836727012
vertex 36.078238918 -2.57583571629 -31.0191007012
endloop
endfacet
facet normal -0.650831 0.195789 0.733543
outer loop
vertex -16.772126082 3.57906628371 34.7173112988
vertex 4.78112691802 11.8399152837 51.6353482988
vertex 7.56744291802 16.3225502837 52.9110292988
endloop
endfacet
facet normal 0.610428 0.377395 -0.696384
outer loop
vertex 36.323519918 8.78298728371 -22.8573897012
vertex 28.744906918 5.98092028371 -31.0191007012
vertex 30.249731918 15.1391172837 -24.7368737012
endloop
endfacet
facet normal 0.708807 0.316110 -0.630609
outer loop
vertex 30.249731918 15.1391172837 -24.7368737012
vertex 28.744906918 5.98092028371 -31.0191007012
vertex 24.015770918 16.5849732837 -31.0191007012
endloop
endfacet
facet normal 0.050119 0.582074 -0.811590
outer loop
vertex 36.078238918 -2.57583571629 -31.0191007012
vertex 36.323519918 8.78298728371 -22.8573897012
vertex 43.221381918 6.63060028371 -23.9751177012
endloop
endfacet
facet normal 0.636881 -0.715211 -0.287847
outer loop
vertex 42.759249918 -13.0618217163 -18.7134517012
vertex 48.072184918 -6.49141771629 -23.2836727012
vertex 47.921240918 -9.91619171629 -15.1081297012
endloop
endfacet
facet normal 0.655692 -0.709608 -0.257922
outer loop
vertex 42.759249918 -13.0618217163 -18.7134517012
vertex 40.534316918 -13.0746677163 -24.3343567012
vertex 48.072184918 -6.49141771629 -23.2836727012
endloop
endfacet
facet normal -0.604307 -0.051609 0.795078
outer loop
vertex 4.78112691802 11.8399152837 51.6353482988
vertex -16.772126082 3.57906628371 34.7173112988
vertex -0.594086081985 6.70997128371 47.2168612988
endloop
endfacet
facet normal -0.616660 0.049845 0.785650
outer loop
vertex -16.772126082 3.57906628371 34.7173112988
vertex -15.800290082 0.0987462837109 35.7009152988
vertex -0.594086081985 6.70997128371 47.2168612988
endloop
endfacet
facet normal 0.499194 -0.486064 -0.717320
outer loop
vertex -19.218560082 -16.3959167163 10.4317892988
vertex -10.435368082 -13.0561267163 14.2810622988
vertex -20.367159082 -24.2892637163 14.9810822988
endloop
endfacet
facet normal -0.809041 0.504127 -0.302175
outer loop
vertex -32.126507082 1.53862128371 -2.32808370119
vertex -24.504208082 12.7699502837 -3.99843070119
vertex -28.365551082 3.20434728371 -9.61866970119
endloop
endfacet
facet normal -0.642465 0.564096 -0.518685
outer loop
vertex -24.504208082 12.7699502837 -3.99843070119
vertex -18.928231082 13.3998092837 -10.2200707012
vertex -28.365551082 3.20434728371 -9.61866970119
endloop
endfacet
facet normal -0.736010 -0.063317 -0.674003
outer loop
vertex -20.585619082 -4.05994571629 -17.4319307012
vertex -25.875580082 -10.1667317163 -11.0816107012
vertex -28.365551082 3.20434728371 -9.61866970119
endloop
endfacet
facet normal 0.068717 -0.748638 0.659408
outer loop
vertex -15.192227082 -12.8591437163 33.8610342988
vertex -25.845952082 -14.2687927163 33.3708602988
vertex -27.199223082 -24.8802077163 21.4645492988
endloop
endfacet
facet normal -0.303152 -0.911300 -0.278622
outer loop
vertex 4.21571591802 -26.2455897163 -4.78103470119
vertex 6.31974691802 -21.3086727163 -23.2177357012
vertex 14.468343918 -27.9235547163 -10.4481417012
endloop
endfacet
facet normal -0.357136 -0.902760 -0.239748
outer loop
vertex 16.131758918 -25.4522617163 -22.2315257012
vertex 14.468343918 -27.9235547163 -10.4481417012
vertex 6.31974691802 -21.3086727163 -23.2177357012
endloop
endfacet
facet normal -0.001030 -0.000882 -0.999999
outer loop
vertex 36.078238918 -2.57583571629 -31.0191007012
vertex 25.390290918 2.54616228371 -31.0126157012
vertex 28.744906918 5.98092028371 -31.0191007012
endloop
endfacet
facet normal -0.001327 -0.000592 -0.999999
outer loop
vertex 25.390290918 2.54616228371 -31.0126157012
vertex 24.015770918 16.5849732837 -31.0191007012
vertex 28.744906918 5.98092028371 -31.0191007012
endloop
endfacet
facet normal 0.001446 -0.000320 -0.999999
outer loop
vertex 25.390290918 2.54616228371 -31.0126157012
vertex 18.599308918 -7.85645171629 -31.0191007012
vertex 24.015770918 16.5849732837 -31.0191007012
endloop
endfacet
facet normal -0.991083 -0.112424 0.071518
outer loop
vertex -27.016099082 26.7681972837 42.8730802988
vertex -25.552311082 7.20351728371 32.4027592988
vertex -25.015389082 4.01417828371 34.8297382988
endloop
endfacet
facet normal -0.820491 -0.253300 0.512478
outer loop
vertex -27.016099082 26.7681972837 42.8730802988
vertex -25.015389082 4.01417828371 34.8297382988
vertex -25.664048082 32.9950222837 48.1154512988
endloop
endfacet
facet normal -0.471657 -0.498000 0.727692
outer loop
vertex -4.56272608198 -18.3567137163 -26.8608747012
vertex 3.93612691802 -24.3636527163 -25.4631807012
vertex 1.13030791802 -15.5940507163 -21.2802547012
endloop
endfacet
facet normal 0.247412 -0.957670 0.147160
outer loop
vertex -4.81735908198 -19.0614707163 -31.0191007012
vertex -4.56272608198 -18.3567137163 -26.8608747012
vertex -14.698397082 -21.6142227163 -31.0191007012
endloop
endfacet
facet normal 0.276508 -0.946800 -0.164659
outer loop
vertex -6.60982908198 -17.4181317163 -23.7894787012
vertex 1.13030791802 -15.5940507163 -21.2802547012
vertex 0.0131609180151 -18.2034617163 -8.15201970119
endloop
endfacet
facet normal 0.104413 -0.929534 0.353646
outer loop
vertex -6.60982908198 -17.4181317163 -23.7894787012
vertex -4.56272608198 -18.3567137163 -26.8608747012
vertex 1.13030791802 -15.5940507163 -21.2802547012
endloop
endfacet
facet normal 0.141090 -0.916580 0.374133
outer loop
vertex -14.698397082 -21.6142227163 -31.0191007012
vertex -4.56272608198 -18.3567137163 -26.8608747012
vertex -6.60982908198 -17.4181317163 -23.7894787012
endloop
endfacet
facet normal -0.902832 -0.221951 0.368283
outer loop
vertex -18.576163082 -18.7611097163 -31.0191007012
vertex -17.827275082 -13.3092507163 -25.8976027012
vertex -20.160035082 -12.3183547163 -31.0191007012
endloop
endfacet
facet normal -0.885505 -0.247663 0.393121
outer loop
vertex -18.576163082 -18.7611097163 -31.0191007012
vertex -16.272267082 -18.8925487163 -25.9123887012
vertex -17.827275082 -13.3092507163 -25.8976027012
endloop
endfacet
facet normal -0.783452 0.601452 0.156394
outer loop
vertex -30.450676082 1.38900928371 9.98111629881
vertex -25.101681082 7.66500128371 12.6408992988
vertex -24.504208082 12.7699502837 -3.99843070119
endloop
endfacet
facet normal -0.813473 0.569575 0.117673
outer loop
vertex -30.450676082 1.38900928371 9.98111629881
vertex -24.504208082 12.7699502837 -3.99843070119
vertex -32.126507082 1.53862128371 -2.32808370119
endloop
endfacet
facet normal 0.099116 -0.364907 0.925753
outer loop
vertex 28.569952918 -12.6747787163 16.4733762988
vertex 21.418021918 0.936798283711 22.6044192988
vertex 8.25857191802 -7.05912271629 20.8615602988
endloop
endfacet
facet normal 0.011059 -0.761255 0.648358
outer loop
vertex 47.921240918 -9.91619171629 -15.1081297012
vertex 43.135436918 -6.03271171629 -10.4668027012
vertex 42.759249918 -13.0618217163 -18.7134517012
endloop
endfacet
facet normal 0.120044 -0.696988 0.706963
outer loop
vertex 47.921240918 -9.91619171629 -15.1081297012
vertex 47.552195918 -5.16122571629 -10.3575937012
vertex 43.135436918 -6.03271171629 -10.4668027012
endloop
endfacet
facet normal 0.563747 0.066582 0.823259
outer loop
vertex 21.418021918 0.936798283711 22.6044192988
vertex 33.771677918 -7.78174171629 14.8500592988
vertex 31.302559918 6.36229428371 15.3969382988
endloop
endfacet
facet normal 0.435361 -0.169497 0.884156
outer loop
vertex 21.418021918 0.936798283711 22.6044192988
vertex 28.569952918 -12.6747787163 16.4733762988
vertex 33.771677918 -7.78174171629 14.8500592988
endloop
endfacet
facet normal 0.228024 -0.828327 0.511741
outer loop
vertex -10.838891082 -15.8653237163 -23.4334127012
vertex -16.272267082 -18.8925487163 -25.9123887012
vertex -14.698397082 -21.6142227163 -31.0191007012
endloop
endfacet
facet normal -0.210756 -0.724480 0.656286
outer loop
vertex -10.838891082 -15.8653237163 -23.4334127012
vertex -14.698397082 -21.6142227163 -31.0191007012
vertex -6.60982908198 -17.4181317163 -23.7894787012
endloop
endfacet
facet normal 0.663597 -0.502330 0.554350
outer loop
vertex 47.921240918 -9.91619171629 -15.1081297012
vertex 50.530230918 -4.94246071629 -13.7242777012
vertex 47.552195918 -5.16122571629 -10.3575937012
endloop
endfacet
facet normal 0.824930 -0.549935 0.130620
outer loop
vertex 4.78112691802 11.8399152837 51.6353482988
vertex 9.68931591802 19.1100722837 51.2462722988
vertex 7.56744291802 16.3225502837 52.9110292988
endloop
endfacet
facet normal 0.812937 -0.470001 0.343850
outer loop
vertex 11.634223918 16.0993142837 41.2551762988
vertex 11.828029918 20.8802592837 47.3319502988
vertex 4.78112691802 11.8399152837 51.6353482988
endloop
endfacet
facet normal 0.816733 -0.540587 0.201774
outer loop
vertex 4.78112691802 11.8399152837 51.6353482988
vertex 11.828029918 20.8802592837 47.3319502988
vertex 9.68931591802 19.1100722837 51.2462722988
endloop
endfacet
facet normal 0.377768 0.245596 0.892734
outer loop
vertex 9.68931591802 19.1100722837 51.2462722988
vertex 9.25942991802 19.7472182837 51.2529022988
vertex 7.56744291802 16.3225502837 52.9110292988
endloop
endfacet
facet normal 0.863016 -0.419154 0.281979
outer loop
vertex 11.828029918 20.8802592837 47.3319502988
vertex 10.822715918 20.4702102837 49.7992432988
vertex 9.68931591802 19.1100722837 51.2462722988
endloop
endfacet
facet normal 0.546106 -0.796295 0.260160
outer loop
vertex 9.31423591802 10.7832742837 38.8856462988
vertex 4.78112691802 11.8399152837 51.6353482988
vertex -0.594086081985 6.70997128371 47.2168612988
endloop
endfacet
facet normal -0.152754 -0.473013 -0.867712
outer loop
vertex -24.574658082 -15.9458367163 8.57422929881
vertex -21.960446082 -23.5009047163 12.2324942988
vertex -31.894787082 -20.9815227163 12.6079672988
endloop
endfacet
facet normal -0.047537 0.116603 0.992040
outer loop
vertex 43.135436918 -6.03271171629 -10.4668027012
vertex 47.552195918 -5.16122571629 -10.3575937012
vertex 42.809138918 2.42990028371 -11.4771237012
endloop
endfacet
facet normal 0.206389 0.267751 0.941123
outer loop
vertex 47.552195918 -5.16122571629 -10.3575937012
vertex 48.729346918 2.32270328371 -12.7449307012
vertex 42.809138918 2.42990028371 -11.4771237012
endloop
endfacet
facet normal -0.742398 0.518446 -0.424334
outer loop
vertex -25.664048082 32.9950222837 48.1154512988
vertex -19.651930082 37.3306892837 42.8941532988
vertex -27.016099082 26.7681972837 42.8730802988
endloop
endfacet
facet normal -0.681010 -0.439803 0.585490
outer loop
vertex -30.979500082 -21.8921427163 21.6733392988
vertex -25.845952082 -14.2687927163 33.3708602988
vertex -33.284791082 -3.90423671629 32.5039552988
endloop
endfacet
facet normal -0.466500 -0.633329 0.617472
outer loop
vertex -30.979500082 -21.8921427163 21.6733392988
vertex -27.199223082 -24.8802077163 21.4645492988
vertex -25.845952082 -14.2687927163 33.3708602988
endloop
endfacet
facet normal 0.416904 0.061315 -0.906880
outer loop
vertex 9.31423591802 10.7832742837 38.8856462988
vertex -10.160740082 -0.0725827162891 29.1987912988
vertex -11.646847082 4.67872928371 28.8368482988
endloop
endfacet
facet normal 0.360555 0.243932 -0.900276
outer loop
vertex 9.31423591802 10.7832742837 38.8856462988
vertex -11.646847082 4.67872928371 28.8368482988
vertex 11.634223918 16.0993142837 41.2551762988
endloop
endfacet
facet normal -0.636240 -0.714492 -0.291034
outer loop
vertex 2.47402691802 -25.5542957163 -31.0191007012
vertex -1.10090408198 -23.4635227163 -28.3366987012
vertex -4.81735908198 -19.0614707163 -31.0191007012
endloop
endfacet
facet normal -0.938554 0.223242 -0.263208
outer loop
vertex -12.945973082 -8.67764571629 -18.3881837012
vertex -11.396840082 -4.48171871629 -20.3533097012
vertex -12.395154082 -11.7720897163 -22.9768927012
endloop
endfacet
facet normal -0.984891 0.159305 -0.067906
outer loop
vertex -11.396840082 -4.48171871629 -20.3533097012
vertex -11.090855082 -4.44552271629 -24.7063017012
vertex -12.395154082 -11.7720897163 -22.9768927012
endloop
endfacet
facet normal -0.048098 0.860227 0.507637
outer loop
vertex 36.323519918 8.78298728371 -22.8573897012
vertex 42.809138918 2.42990028371 -11.4771237012
vertex 46.672076918 6.14070028371 -17.3993227012
endloop
endfacet
facet normal 0.140739 0.795059 0.589978
outer loop
vertex 48.729346918 2.32270328371 -12.7449307012
vertex 46.672076918 6.14070028371 -17.3993227012
vertex 42.809138918 2.42990028371 -11.4771237012
endloop
endfacet
facet normal -0.524501 0.442596 -0.727329
outer loop
vertex -18.928231082 13.3998092837 -10.2200707012
vertex -14.805581082 3.69995828371 -19.0956117012
vertex -28.365551082 3.20434728371 -9.61866970119
endloop
endfacet
facet normal -0.293539 0.574421 -0.764118
outer loop
vertex -18.928231082 13.3998092837 -10.2200707012
vertex -13.277030082 9.56655628371 -15.2726297012
vertex -14.805581082 3.69995828371 -19.0956117012
endloop
endfacet
facet normal -0.300888 -0.311115 -0.901484
outer loop
vertex -11.396840082 -4.48171871629 -20.3533097012
vertex -12.945973082 -8.67764571629 -18.3881837012
vertex -20.585619082 -4.05994571629 -17.4319307012
endloop
endfacet
facet normal -0.568175 0.392066 0.723506
outer loop
vertex -15.904574082 2.12792428371 -24.1644867012
vertex -13.729180082 8.13742928371 -25.7126627012
vertex -20.490620082 8.13120528371 -31.0191007012
endloop
endfacet
facet normal -0.302059 0.020659 -0.953065
outer loop
vertex -14.805581082 3.69995828371 -19.0956117012
vertex -11.396840082 -4.48171871629 -20.3533097012
vertex -20.585619082 -4.05994571629 -17.4319307012
endloop
endfacet
facet normal -0.809957 0.349701 0.470828
outer loop
vertex -20.490620082 8.13120528371 -31.0191007012
vertex -23.547997082 1.04988028371 -31.0191007012
vertex -21.822260082 0.569478283711 -27.6935317012
endloop
endfacet
facet normal 0.742589 0.094698 0.663019
outer loop
vertex 48.729346918 2.32270328371 -12.7449307012
vertex 47.552195918 -5.16122571629 -10.3575937012
vertex 50.530230918 -4.94246071629 -13.7242777012
endloop
endfacet
facet normal 0.953735 0.207021 0.218019
outer loop
vertex 48.729346918 2.32270328371 -12.7449307012
vertex 50.530230918 -4.94246071629 -13.7242777012
vertex 49.910597918 1.73222928371 -17.3516817012
endloop
endfacet
facet normal 0.468330 -0.862391 -0.192223
outer loop
vertex -12.367730082 -2.43722271629 34.4304612988
vertex -10.160740082 -0.0725827162891 29.1987912988
vertex -2.44447408198 2.43806728371 36.7348212988
endloop
endfacet
facet normal 0.285328 0.955204 -0.078565
outer loop
vertex 43.221381918 6.63060028371 -23.9751177012
vertex 36.323519918 8.78298728371 -22.8573897012
vertex 46.672076918 6.14070028371 -17.3993227012
endloop
endfacet
facet normal -0.990610 0.020828 0.135119
outer loop
vertex -32.126507082 1.53862128371 -2.32808370119
vertex -32.148362082 -7.84225171629 -1.04232070119
vertex -30.450676082 1.38900928371 9.98111629881
endloop
endfacet
facet normal -0.245979 -0.928463 -0.278298
outer loop
vertex -31.894787082 -20.9815227163 12.6079672988
vertex -21.960446082 -23.5009047163 12.2324942988
vertex -27.199223082 -24.8802077163 21.4645492988
endloop
endfacet
facet normal -0.116267 -0.970551 -0.210980
outer loop
vertex -21.960446082 -23.5009047163 12.2324942988
vertex -20.367159082 -24.2892637163 14.9810822988
vertex -27.199223082 -24.8802077163 21.4645492988
endloop
endfacet
facet normal -0.823654 -0.529808 0.202231
outer loop
vertex -24.574658082 -15.9458367163 8.57422929881
vertex -31.035130082 -5.58084271629 9.41617929881
vertex -32.148362082 -7.84225171629 -1.04232070119
endloop
endfacet
facet normal -0.534999 -0.698117 -0.475825
outer loop
vertex -16.136851082 -18.2634727163 -10.1521397012
vertex -19.356801082 -19.9293627163 -4.08761070119
vertex -25.875580082 -10.1667317163 -11.0816107012
endloop
endfacet
facet normal -0.693729 -0.663668 -0.279794
outer loop
vertex -19.356801082 -19.9293627163 -4.08761070119
vertex -32.148362082 -7.84225171629 -1.04232070119
vertex -25.875580082 -10.1667317163 -11.0816107012
endloop
endfacet
facet normal -0.706164 0.279294 0.650636
outer loop
vertex -11.090855082 -4.44552271629 -24.7063017012
vertex -18.514439082 -8.56866571629 -30.9935307012
vertex -12.395154082 -11.7720897163 -22.9768927012
endloop
endfacet
facet normal -0.711126 0.415226 0.567351
outer loop
vertex -18.514439082 -8.56866571629 -30.9935307012
vertex -11.090855082 -4.44552271629 -24.7063017012
vertex -17.407010082 -6.63712171629 -31.0191007012
endloop
endfacet
facet normal -0.575393 -0.782037 0.239460
outer loop
vertex -14.698397082 -21.6142227163 -31.0191007012
vertex -16.272267082 -18.8925487163 -25.9123887012
vertex -18.576163082 -18.7611097163 -31.0191007012
endloop
endfacet
facet normal 0.998960 0.014460 -0.043236
outer loop
vertex 11.828029918 20.8802592837 47.3319502988
vertex 11.634223918 16.0993142837 41.2551762988
vertex 11.671561918 18.7191422837 42.9940522988
endloop
endfacet
facet normal -0.847538 0.306567 0.433239
outer loop
vertex -6.73528908198 10.8451012837 -24.5564997012
vertex -6.92851708198 19.4438022837 -31.0191007012
vertex -9.83273908198 11.4147732837 -31.0191007012
endloop
endfacet
facet normal -0.654680 0.444698 0.611260
outer loop
vertex -6.92851708198 19.4438022837 -31.0191007012
vertex -6.73528908198 10.8451012837 -24.5564997012
vertex -2.75841008198 20.3825482837 -27.2357217012
endloop
endfacet
facet normal -0.722716 0.115831 -0.681370
outer loop
vertex -31.035130082 -5.58084271629 9.41617929881
vertex -32.819150082 1.08587028371 12.4417792988
vertex -30.450676082 1.38900928371 9.98111629881
endloop
endfacet
facet normal -0.385513 -0.166569 -0.907543
outer loop
vertex -31.035130082 -5.58084271629 9.41617929881
vertex -24.574658082 -15.9458367163 8.57422929881
vertex -31.894787082 -20.9815227163 12.6079672988
endloop
endfacet
facet normal -0.857585 0.003931 -0.514327
outer loop
vertex -31.035130082 -5.58084271629 9.41617929881
vertex -34.422764082 -18.9607787163 14.9624282988
vertex -32.819150082 1.08587028371 12.4417792988
endloop
endfacet
facet normal -0.205671 -0.945741 0.251541
outer loop
vertex 39.459807918 -11.9531487163 -17.2428557012
vertex 36.112017918 -12.8781237163 -23.4578557012
vertex 42.759249918 -13.0618217163 -18.7134517012
endloop
endfacet
facet normal 0.000000 0.000000 -1.000000
outer loop
vertex -20.160035082 -12.3183547163 -31.0191007012
vertex -0.876844081985 21.6175752837 -31.0191007012
vertex 24.015770918 16.5849732837 -31.0191007012
endloop
endfacet
facet normal -0.505795 0.824714 0.253017
outer loop
vertex -3.95391908198 10.6547192837 16.2820772988
vertex 1.79291291802 18.8614282837 1.02035829881
vertex -2.07797208198 18.2363882837 -4.68042970119
endloop
endfacet
facet normal -0.421127 0.884295 -0.201678
outer loop
vertex -11.646847082 4.67872928371 28.8368482988
vertex -16.772126082 3.57906628371 34.7173112988
vertex 9.25942991802 19.7472182837 51.2529022988
endloop
endfacet
facet normal -0.275771 0.895106 0.350337
outer loop
vertex -20.490620082 8.13120528371 -31.0191007012
vertex -13.729180082 8.13742928371 -25.7126627012
vertex -9.83273908198 11.4147732837 -31.0191007012
endloop
endfacet
facet normal -0.238548 0.964156 -0.116184
outer loop
vertex -24.504208082 12.7699502837 -3.99843070119
vertex -2.07797208198 18.2363882837 -4.68042970119
vertex -18.928231082 13.3998092837 -10.2200707012
endloop
endfacet
facet normal -0.305880 0.950902 -0.047135
outer loop
vertex -25.101681082 7.66500128371 12.6408992988
vertex -30.494179082 6.10209828371 16.1052282988
vertex -23.676659082 8.88275828371 27.9602962988
endloop
endfacet
facet normal -0.465760 0.850543 0.244223
outer loop
vertex -24.504208082 12.7699502837 -3.99843070119
vertex -25.101681082 7.66500128371 12.6408992988
vertex -15.170321082 14.8894812837 6.42073729881
endloop
endfacet
facet normal 0.020317 0.996499 -0.081103
outer loop
vertex -25.101681082 7.66500128371 12.6408992988
vertex -23.676659082 8.88275828371 27.9602962988
vertex -18.454052082 8.75726228371 27.7266652988
endloop
endfacet
facet normal -0.443970 0.895467 -0.032073
outer loop
vertex 11.828029918 20.8802592837 47.3319502988
vertex 9.25942991802 19.7472182837 51.2529022988
vertex 10.822715918 20.4702102837 49.7992432988
endloop
endfacet
facet normal -0.234364 0.858954 -0.455272
outer loop
vertex -2.03744408198 12.3066512837 -15.8888327012
vertex -13.277030082 9.56655628371 -15.2726297012
vertex -2.07797208198 18.2363882837 -4.68042970119
endloop
endfacet
facet normal -0.029754 0.992831 0.115764
outer loop
vertex -6.73528908198 10.8451012837 -24.5564997012
vertex -13.277030082 9.56655628371 -15.2726297012
vertex -1.45841808198 10.8027772837 -22.8372347012
endloop
endfacet
facet normal -0.242407 0.943847 -0.224481
outer loop
vertex -1.45841808198 10.8027772837 -22.8372347012
vertex -13.277030082 9.56655628371 -15.2726297012
vertex -2.03744408198 12.3066512837 -15.8888327012
endloop
endfacet
facet normal 0.168956 0.974894 -0.145037
outer loop
vertex -18.454052082 8.75726228371 27.7266652988
vertex -10.885932082 6.43417628371 20.9278522988
vertex -25.101681082 7.66500128371 12.6408992988
endloop
endfacet
facet normal -0.202854 0.856202 0.475152
outer loop
vertex -25.101681082 7.66500128371 12.6408992988
vertex -10.885932082 6.43417628371 20.9278522988
vertex -3.95391908198 10.6547192837 16.2820772988
endloop
endfacet
facet normal -0.515696 0.851854 -0.091669
outer loop
vertex -11.646847082 4.67872928371 28.8368482988
vertex 9.25942991802 19.7472182837 51.2529022988
vertex 11.828029918 20.8802592837 47.3319502988
endloop
endfacet
facet normal -0.342451 0.932734 -0.112850
outer loop
vertex -6.73528908198 10.8451012837 -24.5564997012
vertex -13.729180082 8.13742928371 -25.7126627012
vertex -13.277030082 9.56655628371 -15.2726297012
endloop
endfacet
facet normal -0.236389 0.971556 0.014126
outer loop
vertex -2.07797208198 18.2363882837 -4.68042970119
vertex -24.504208082 12.7699502837 -3.99843070119
vertex -15.170321082 14.8894812837 6.42073729881
endloop
endfacet
facet normal -0.021580 0.784715 -0.619481
outer loop
vertex -2.07797208198 18.2363882837 -4.68042970119
vertex -13.277030082 9.56655628371 -15.2726297012
vertex -18.928231082 13.3998092837 -10.2200707012
endloop
endfacet
facet normal 0.403100 0.795798 0.451903
outer loop
vertex -18.454052082 8.75726228371 27.7266652988
vertex -16.901635082 6.31227728371 30.6474942988
vertex -11.646847082 4.67872928371 28.8368482988
endloop
endfacet
facet normal -0.385822 0.884330 0.262873
outer loop
vertex -13.729180082 8.13742928371 -25.7126627012
vertex -6.73528908198 10.8451012837 -24.5564997012
vertex -9.83273908198 11.4147732837 -31.0191007012
endloop
endfacet
facet normal 0.471305 0.850340 0.234082
outer loop
vertex -18.454052082 8.75726228371 27.7266652988
vertex -11.646847082 4.67872928371 28.8368482988
vertex -10.885932082 6.43417628371 20.9278522988
endloop
endfacet
facet normal -0.632237 -0.774649 -0.013980
outer loop
vertex -34.422764082 -18.9607787163 14.9624282988
vertex -31.894787082 -20.9815227163 12.6079672988
vertex -30.979500082 -21.8921427163 21.6733392988
endloop
endfacet
facet normal -0.080456 0.529135 -0.844715
outer loop
vertex -22.653412082 28.9433082837 32.5933412988
vertex -20.571774082 35.0278752837 36.2064852988
vertex -20.045777082 31.1941022837 33.7548862988
endloop
endfacet
facet normal 0.314083 0.541689 -0.779696
outer loop
vertex -18.309723082 36.5426832837 38.1701082988
vertex -20.045777082 31.1941022837 33.7548862988
vertex -20.571774082 35.0278752837 36.2064852988
endloop
endfacet
facet normal 0.363862 -0.925780 0.102642
outer loop
vertex 3.93612691802 -24.3636527163 -25.4631807012
vertex 2.47402691802 -25.5542957163 -31.0191007012
vertex 9.48295591802 -22.1109017163 -24.8077547012
endloop
endfacet
facet normal 0.332484 -0.942972 -0.016050
outer loop
vertex 28.786120918 -18.2175537163 -29.2422717012
vertex 23.125754918 -20.2622827163 -26.3674707012
vertex 22.556475918 -20.3838317163 -31.0191007012
endloop
endfacet
facet normal 0.153502 -0.968841 0.194380
outer loop
vertex 9.48295591802 -22.1109017163 -24.8077547012
vertex 10.859269918 -23.1390317163 -31.0191007012
vertex 23.125754918 -20.2622827163 -26.3674707012
endloop
endfacet
facet normal 0.229268 -0.973360 -0.002624
outer loop
vertex 10.859269918 -23.1390317163 -31.0191007012
vertex 22.556475918 -20.3838317163 -31.0191007012
vertex 23.125754918 -20.2622827163 -26.3674707012
endloop
endfacet
facet normal 0.270298 -0.938413 0.215223
outer loop
vertex 9.48295591802 -22.1109017163 -24.8077547012
vertex 2.47402691802 -25.5542957163 -31.0191007012
vertex 10.859269918 -23.1390317163 -31.0191007012
endloop
endfacet
facet normal 0.848712 -0.197433 0.490620
outer loop
vertex -19.302254082 4.71383928371 34.1570462988
vertex -16.901635082 6.31227728371 30.6474942988
vertex -16.788401082 38.9403792837 43.5816532988
endloop
endfacet
facet normal 0.938891 0.305715 0.158185
outer loop
vertex -10.885932082 6.43417628371 20.9278522988
vertex -11.646847082 4.67872928371 28.8368482988
vertex -10.160740082 -0.0725827162891 29.1987912988
endloop
endfacet
facet normal 0.244138 0.808620 0.535285
outer loop
vertex -16.772126082 3.57906628371 34.7173112988
vertex -16.901635082 6.31227728371 30.6474942988
vertex -19.302254082 4.71383928371 34.1570462988
endloop
endfacet
facet normal -0.536354 0.645606 -0.543615
outer loop
vertex -30.494179082 6.10209828371 16.1052282988
vertex -25.101681082 7.66500128371 12.6408992988
vertex -32.819150082 1.08587028371 12.4417792988
endloop
endfacet
facet normal -0.110901 -0.929765 -0.351053
outer loop
vertex 34.687788918 -10.9438427163 -28.1308697012
vertex 40.534316918 -13.0746677163 -24.3343567012
vertex 36.112017918 -12.8781237163 -23.4578557012
endloop
endfacet
facet normal -0.962721 -0.263296 0.061993
outer loop
vertex -12.945973082 -8.67764571629 -18.3881837012
vertex -12.395154082 -11.7720897163 -22.9768927012
vertex -10.976937082 -15.1509297163 -15.3032347012
endloop
endfacet
facet normal -0.934033 -0.356851 0.015497
outer loop
vertex -12.395154082 -11.7720897163 -22.9768927012
vertex -10.838891082 -15.8653237163 -23.4334127012
vertex -10.976937082 -15.1509297163 -15.3032347012
endloop
endfacet
facet normal -0.448250 -0.492018 -0.746318
outer loop
vertex -10.976937082 -15.1509297163 -15.3032347012
vertex -16.136851082 -18.2634727163 -10.1521397012
vertex -12.945973082 -8.67764571629 -18.3881837012
endloop
endfacet
facet normal -0.388852 -0.480550 -0.786044
outer loop
vertex -25.875580082 -10.1667317163 -11.0816107012
vertex -20.585619082 -4.05994571629 -17.4319307012
vertex -12.945973082 -8.67764571629 -18.3881837012
endloop
endfacet
facet normal 0.967575 -0.141134 -0.209475
outer loop
vertex -16.788401082 38.9403792837 43.5816532988
vertex -20.045777082 31.1941022837 33.7548862988
vertex -18.309723082 36.5426832837 38.1701082988
endloop
endfacet
facet normal 0.920963 0.160706 -0.354966
outer loop
vertex -16.901635082 6.31227728371 30.6474942988
vertex -18.454052082 8.75726228371 27.7266652988
vertex -20.045777082 31.1941022837 33.7548862988
endloop
endfacet
facet normal -0.722850 0.637708 0.266114
outer loop
vertex -33.284791082 -3.90423671629 32.5039552988
vertex -23.676659082 8.88275828371 27.9602962988
vertex -30.494179082 6.10209828371 16.1052282988
endloop
endfacet
facet normal 0.889719 0.165558 -0.425430
outer loop
vertex -16.901635082 6.31227728371 30.6474942988
vertex -20.045777082 31.1941022837 33.7548862988
vertex -16.788401082 38.9403792837 43.5816532988
endloop
endfacet
facet normal -0.930088 0.127044 -0.344669
outer loop
vertex -23.676659082 8.88275828371 27.9602962988
vertex -25.552311082 7.20351728371 32.4027592988
vertex -22.653412082 28.9433082837 32.5933412988
endloop
endfacet
facet normal -0.923955 0.375665 0.071995
outer loop
vertex -32.819150082 1.08587028371 12.4417792988
vertex -33.284791082 -3.90423671629 32.5039552988
vertex -30.494179082 6.10209828371 16.1052282988
endloop
endfacet
facet normal -0.950101 0.311049 0.023575
outer loop
vertex -19.651930082 37.3306892837 42.8941532988
vertex -20.571774082 35.0278752837 36.2064852988
vertex -22.653412082 28.9433082837 32.5933412988
endloop
endfacet
facet normal -0.996844 0.079313 -0.003409
outer loop
vertex -32.819150082 1.08587028371 12.4417792988
vertex -34.422764082 -18.9607787163 14.9624282988
vertex -33.284791082 -3.90423671629 32.5039552988
endloop
endfacet
facet normal -0.814312 0.565685 -0.129983
outer loop
vertex -33.284791082 -3.90423671629 32.5039552988
vertex -25.552311082 7.20351728371 32.4027592988
vertex -23.676659082 8.88275828371 27.9602962988
endloop
endfacet
facet normal -0.975318 0.128480 0.179577
outer loop
vertex -25.552311082 7.20351728371 32.4027592988
vertex -19.651930082 37.3306892837 42.8941532988
vertex -22.653412082 28.9433082837 32.5933412988
endloop
endfacet
facet normal -0.912125 0.360957 -0.194260
outer loop
vertex -2.03744408198 12.3066512837 -15.8888327012
vertex -2.07797208198 18.2363882837 -4.68042970119
vertex 0.793063918015 24.5337892837 -6.45973970119
endloop
endfacet
facet normal -0.775906 0.624129 0.091826
outer loop
vertex 0.550630918015 16.6287162837 -23.3967447012
vertex -2.03744408198 12.3066512837 -15.8888327012
vertex 2.05387591802 18.5718962837 -23.9022297012
endloop
endfacet
facet normal -0.939542 0.310033 -0.145396
outer loop
vertex -1.45841808198 10.8027772837 -22.8372347012
vertex -2.03744408198 12.3066512837 -15.8888327012
vertex 0.550630918015 16.6287162837 -23.3967447012
endloop
endfacet
facet normal -0.915005 0.356895 -0.188128
outer loop
vertex -2.03744408198 12.3066512837 -15.8888327012
vertex 0.793063918015 24.5337892837 -6.45973970119
vertex 2.05387591802 18.5718962837 -23.9022297012
endloop
endfacet
facet normal -0.265530 0.866730 -0.422223
outer loop
vertex 11.828029918 20.8802592837 47.3319502988
vertex 11.671561918 18.7191422837 42.9940522988
vertex -11.646847082 4.67872928371 28.8368482988
endloop
endfacet
facet normal 0.171997 0.543065 -0.821886
outer loop
vertex -11.646847082 4.67872928371 28.8368482988
vertex 11.671561918 18.7191422837 42.9940522988
vertex 11.634223918 16.0993142837 41.2551762988
endloop
endfacet
facet normal 0.000000 0.000000 -1.000000
outer loop
vertex 22.556475918 -20.3838317163 -31.0191007012
vertex 18.599308918 -7.85645171629 -31.0191007012
vertex 36.078238918 -2.57583571629 -31.0191007012
endloop
endfacet
facet normal 0.000000 0.000000 -1.000000
outer loop
vertex 2.47402691802 -25.5542957163 -31.0191007012
vertex -4.81735908198 -19.0614707163 -31.0191007012
vertex 10.859269918 -23.1390317163 -31.0191007012
endloop
endfacet
facet normal 0.000000 0.000000 -1.000000
outer loop
vertex -14.698397082 -21.6142227163 -31.0191007012
vertex -18.576163082 -18.7611097163 -31.0191007012
vertex -4.81735908198 -19.0614707163 -31.0191007012
endloop
endfacet
facet normal 0.000000 0.000000 -1.000000
outer loop
vertex 24.015770918 16.5849732837 -31.0191007012
vertex -4.81735908198 -19.0614707163 -31.0191007012
vertex -18.576163082 -18.7611097163 -31.0191007012
endloop
endfacet
facet normal 0.000000 0.000000 -1.000000
outer loop
vertex -4.81735908198 -19.0614707163 -31.0191007012
vertex 22.556475918 -20.3838317163 -31.0191007012
vertex 10.859269918 -23.1390317163 -31.0191007012
endloop
endfacet
facet normal 0.000000 0.000000 -1.000000
outer loop
vertex 18.599308918 -7.85645171629 -31.0191007012
vertex -4.81735908198 -19.0614707163 -31.0191007012
vertex 24.015770918 16.5849732837 -31.0191007012
endloop
endfacet
facet normal 0.000000 0.000000 -1.000000
outer loop
vertex 22.556475918 -20.3838317163 -31.0191007012
vertex -4.81735908198 -19.0614707163 -31.0191007012
vertex 18.599308918 -7.85645171629 -31.0191007012
endloop
endfacet
facet normal -0.000235 0.000777 -1.000000
outer loop
vertex 18.599308918 -7.85645171629 -31.0191007012
vertex 25.390290918 2.54616228371 -31.0126157012
vertex 36.078238918 -2.57583571629 -31.0191007012
endloop
endfacet
facet normal 0.348482 -0.264605 -0.899191
outer loop
vertex 22.556475918 -20.3838317163 -31.0191007012
vertex 36.078238918 -2.57583571629 -31.0191007012
vertex 28.786120918 -18.2175537163 -29.2422717012
endloop
endfacet
facet normal 0.423560 -0.351747 -0.834788
outer loop
vertex 36.078238918 -2.57583571629 -31.0191007012
vertex 48.072184918 -6.49141771629 -23.2836727012
vertex 40.534316918 -13.0746677163 -24.3343567012
endloop
endfacet
facet normal 0.572115 -0.350927 -0.741306
outer loop
vertex 36.078238918 -2.57583571629 -31.0191007012
vertex 34.687788918 -10.9438427163 -28.1308697012
vertex 28.786120918 -18.2175537163 -29.2422717012
endloop
endfacet
facet normal 0.155936 -0.408744 0.899229
outer loop
vertex -25.015389082 4.01417828371 34.8297382988
vertex -19.302254082 4.71383928371 34.1570462988
vertex -25.664048082 32.9950222837 48.1154512988
endloop
endfacet
facet normal 0.262898 -0.123530 0.956883
outer loop
vertex -12.367730082 -2.43722271629 34.4304612988
vertex -15.800290082 0.0987462837109 35.7009152988
vertex -15.192227082 -12.8591437163 33.8610342988
endloop
endfacet
facet normal -0.015055 -0.141256 0.989859
outer loop
vertex -15.800290082 0.0987462837109 35.7009152988
vertex -29.001019082 -6.56329271629 34.5494722988
vertex -15.192227082 -12.8591437163 33.8610342988
endloop
endfacet
facet normal -0.024121 -0.160798 0.986692
outer loop
vertex -29.001019082 -6.56329271629 34.5494722988
vertex -25.845952082 -14.2687927163 33.3708602988
vertex -15.192227082 -12.8591437163 33.8610342988
endloop
endfacet
facet normal 0.038655 0.510345 0.859101
outer loop
vertex -16.772126082 3.57906628371 34.7173112988
vertex -19.302254082 4.71383928371 34.1570462988
vertex -25.015389082 4.01417828371 34.8297382988
endloop
endfacet
facet normal 0.018739 -0.439115 0.898235
outer loop
vertex -25.664048082 32.9950222837 48.1154512988
vertex -19.302254082 4.71383928371 34.1570462988
vertex -22.355790082 35.8445862837 49.4394712988
endloop
endfacet
facet normal -0.090815 0.007834 0.995837
outer loop
vertex -25.015389082 4.01417828371 34.8297382988
vertex -29.001019082 -6.56329271629 34.5494722988
vertex -15.800290082 0.0987462837109 35.7009152988
endloop
endfacet
facet normal 0.424879 -0.364998 0.828405
outer loop
vertex -22.355790082 35.8445862837 49.4394712988
vertex -19.302254082 4.71383928371 34.1570462988
vertex -18.698182082 38.0758922837 48.5466572988
endloop
endfacet
facet normal -0.598615 -0.656489 0.459002
outer loop
vertex 2.57750091802 -20.1775087163 1.76135629881
vertex 4.21571591802 -26.2455897163 -4.78103470119
vertex 7.83774091802 -26.0614327163 0.206079298813
endloop
endfacet
facet normal -0.101070 -0.988788 0.109919
outer loop
vertex 4.21571591802 -26.2455897163 -4.78103470119
vertex 14.468343918 -27.9235547163 -10.4481417012
vertex 7.83774091802 -26.0614327163 0.206079298813
endloop
endfacet
facet normal 0.061042 -0.887865 0.456036
outer loop
vertex 31.096890918 -20.8061417163 1.18310129881
vertex 13.061817918 -20.0975337163 4.97676829881
vertex 14.468343918 -27.9235547163 -10.4481417012
endloop
endfacet
facet normal -0.090579 -0.890755 0.445365
outer loop
vertex -10.435368082 -13.0561267163 14.2810622988
vertex 13.061817918 -20.0975337163 4.97676829881
vertex 10.322251918 -14.5500767163 15.5148122988
endloop
endfacet
facet normal 0.103751 0.929130 0.354898
outer loop
vertex 2.05387591802 18.5718962837 -23.9022297012
vertex -0.876844081985 21.6175752837 -31.0191007012
vertex -2.75841008198 20.3825482837 -27.2357217012
endloop
endfacet
facet normal -0.161969 -0.958456 0.234792
outer loop
vertex -19.218560082 -16.3959167163 10.4317892988
vertex -24.574658082 -15.9458367163 8.57422929881
vertex -19.356801082 -19.9293627163 -4.08761070119
endloop
endfacet
facet normal 0.030623 -0.987168 -0.156722
outer loop
vertex -19.356801082 -19.9293627163 -4.08761070119
vertex -8.83355608198 -18.6024887163 -10.3891267012
vertex 2.57750091802 -20.1775087163 1.76135629881
endloop
endfacet
facet normal 0.478733 -0.764568 0.431567
outer loop
vertex 14.468343918 -27.9235547163 -10.4481417012
vertex 13.061817918 -20.0975337163 4.97676829881
vertex 7.83774091802 -26.0614327163 0.206079298813
endloop
endfacet
facet normal 0.065897 -0.876440 0.476981
outer loop
vertex 13.061817918 -20.0975337163 4.97676829881
vertex 31.096890918 -20.8061417163 1.18310129881
vertex 28.569952918 -12.6747787163 16.4733762988
endloop
endfacet
facet normal 0.258062 -0.939292 0.226130
outer loop
vertex -19.218560082 -16.3959167163 10.4317892988
vertex -19.356801082 -19.9293627163 -4.08761070119
vertex -10.435368082 -13.0561267163 14.2810622988
endloop
endfacet
facet normal -0.115127 -0.910121 0.398027
outer loop
vertex 13.061817918 -20.0975337163 4.97676829881
vertex -10.435368082 -13.0561267163 14.2810622988
vertex 2.57750091802 -20.1775087163 1.76135629881
endloop
endfacet
facet normal -0.116186 -0.910398 0.397085
outer loop
vertex -19.356801082 -19.9293627163 -4.08761070119
vertex 2.57750091802 -20.1775087163 1.76135629881
vertex -10.435368082 -13.0561267163 14.2810622988
endloop
endfacet
facet normal -0.189588 0.872023 0.451256
outer loop
vertex 2.05387591802 18.5718962837 -23.9022297012
vertex 5.51116091802 20.0542472837 -25.3142567012
vertex -0.876844081985 21.6175752837 -31.0191007012
endloop
endfacet
facet normal 0.765690 0.430838 0.477596
outer loop
vertex 38.985537918 11.6960132837 -0.556309701187
vertex 33.801569918 12.1365442837 7.35731829881
vertex 35.768736918 2.55599728371 12.8461102988
endloop
endfacet
facet normal -0.334831 0.932153 0.137768
outer loop
vertex -0.876844081985 21.6175752837 -31.0191007012
vertex -6.92851708198 19.4438022837 -31.0191007012
vertex -2.75841008198 20.3825482837 -27.2357217012
endloop
endfacet
facet normal 0.701712 0.457151 0.546455
outer loop
vertex 33.801569918 12.1365442837 7.35731829881
vertex 31.302559918 6.36229428371 15.3969382988
vertex 35.768736918 2.55599728371 12.8461102988
endloop
endfacet
facet normal 0.969261 -0.041786 -0.242459
outer loop
vertex 50.530230918 -4.94246071629 -13.7242777012
vertex 48.072184918 -6.49141771629 -23.2836727012
vertex 49.910597918 1.73222928371 -17.3516817012
endloop
endfacet
facet normal 0.945253 0.023475 -0.325492
outer loop
vertex 48.072184918 -6.49141771629 -23.2836727012
vertex 47.996668918 1.70306028371 -22.9119687012
vertex 49.910597918 1.73222928371 -17.3516817012
endloop
endfacet
facet normal 0.227470 0.966775 -0.116635
outer loop
vertex 7.63357591802 26.0326282837 -2.88203070119
vertex 29.351469918 18.6914282837 -21.3765947012
vertex 4.32682091802 25.9616882837 -9.91912170119
endloop
endfacet
facet normal 0.393932 0.895245 0.208216
outer loop
vertex 7.63357591802 26.0326282837 -2.88203070119
vertex 33.801569918 12.1365442837 7.35731829881
vertex 38.985537918 11.6960132837 -0.556309701187
endloop
endfacet
facet normal 0.098466 0.959460 -0.264085
outer loop
vertex 24.015770918 16.5849732837 -31.0191007012
vertex 5.51116091802 20.0542472837 -25.3142567012
vertex 29.351469918 18.6914282837 -21.3765947012
endloop
endfacet
facet normal 0.405841 0.906454 0.116767
outer loop
vertex 38.985537918 11.6960132837 -0.556309701187
vertex 29.351469918 18.6914282837 -21.3765947012
vertex 7.63357591802 26.0326282837 -2.88203070119
endloop
endfacet
facet normal 0.197947 0.979102 0.046656
outer loop
vertex 5.51116091802 20.0542472837 -25.3142567012
vertex 24.015770918 16.5849732837 -31.0191007012
vertex -0.876844081985 21.6175752837 -31.0191007012
endloop
endfacet
facet normal -0.485450 0.803095 -0.345510
outer loop
vertex 5.51116091802 20.0542472837 -25.3142567012
vertex 2.05387591802 18.5718962837 -23.9022297012
vertex 4.32682091802 25.9616882837 -9.91912170119
endloop
endfacet
facet normal -0.593941 0.747157 -0.298313
outer loop
vertex 4.32682091802 25.9616882837 -9.91912170119
vertex 2.05387591802 18.5718962837 -23.9022297012
vertex 0.793063918015 24.5337892837 -6.45973970119
endloop
endfacet
facet normal -0.807684 -0.586384 -0.061650
outer loop
vertex -11.090855082 -4.44552271629 -24.7063017012
vertex -11.396840082 -4.48171871629 -20.3533097012
vertex -15.904574082 2.12792428371 -24.1644867012
endloop
endfacet
facet normal -0.452209 0.410935 0.791606
outer loop
vertex -6.73528908198 10.8451012837 -24.5564997012
vertex 0.550630918015 16.6287162837 -23.3967447012
vertex -2.75841008198 20.3825482837 -27.2357217012
endloop
endfacet
facet normal -0.365102 0.488587 0.792454
outer loop
vertex 2.05387591802 18.5718962837 -23.9022297012
vertex -2.75841008198 20.3825482837 -27.2357217012
vertex 0.550630918015 16.6287162837 -23.3967447012
endloop
endfacet
facet normal -0.302496 0.193938 0.933212
outer loop
vertex 0.550630918015 16.6287162837 -23.3967447012
vertex -6.73528908198 10.8451012837 -24.5564997012
vertex -1.45841808198 10.8027772837 -22.8372347012
endloop
endfacet
facet normal -0.900706 -0.406989 0.151946
outer loop
vertex 4.21571591802 -26.2455897163 -4.78103470119
vertex 2.57750091802 -20.1775087163 1.76135629881
vertex 0.0131609180151 -18.2034617163 -8.15201970119
endloop
endfacet
facet normal -0.757999 -0.624392 -0.188608
outer loop
vertex 0.0131609180151 -18.2034617163 -8.15201970119
vertex 1.13030791802 -15.5940507163 -21.2802547012
vertex 6.31974691802 -21.3086727163 -23.2177357012
endloop
endfacet
facet normal 0.802866 -0.590687 0.080591
outer loop
vertex 39.459807918 -11.9531487163 -17.2428557012
vertex 43.135436918 -6.03271171629 -10.4668027012
vertex 31.096890918 -20.8061417163 1.18310129881
endloop
endfacet
facet normal -0.745141 -0.595277 0.300683
outer loop
vertex -21.822260082 0.569478283711 -27.6935317012
vertex -23.547997082 1.04988028371 -31.0191007012
vertex -17.407010082 -6.63712171629 -31.0191007012
endloop
endfacet
facet normal -0.544566 -0.456765 0.703430
outer loop
vertex -15.904574082 2.12792428371 -24.1644867012
vertex -17.407010082 -6.63712171629 -31.0191007012
vertex -11.090855082 -4.44552271629 -24.7063017012
endloop
endfacet
facet normal -0.316002 -0.550262 0.772887
outer loop
vertex -15.904574082 2.12792428371 -24.1644867012
vertex -21.822260082 0.569478283711 -27.6935317012
vertex -17.407010082 -6.63712171629 -31.0191007012
endloop
endfacet
facet normal -0.431226 0.869695 -0.240157
outer loop
vertex -16.788401082 38.9403792837 43.5816532988
vertex -20.571774082 35.0278752837 36.2064852988
vertex -19.651930082 37.3306892837 42.8941532988
endloop
endfacet
facet normal 0.840310 -0.464995 0.278675
outer loop
vertex 33.771677918 -7.78174171629 14.8500592988
vertex 31.096890918 -20.8061417163 1.18310129881
vertex 43.135436918 -6.03271171629 -10.4668027012
endloop
endfacet
facet normal -0.524837 0.850875 -0.023620
outer loop
vertex -18.698182082 38.0758922837 48.5466572988
vertex -19.651930082 37.3306892837 42.8941532988
vertex -22.355790082 35.8445862837 49.4394712988
endloop
endfacet
facet normal -0.483576 0.874653 -0.033716
outer loop
vertex -18.698182082 38.0758922837 48.5466572988
vertex -16.788401082 38.9403792837 43.5816532988
vertex -19.651930082 37.3306892837 42.8941532988
endloop
endfacet
facet normal 0.478662 -0.864111 -0.155548
outer loop
vertex 14.468343918 -27.9235547163 -10.4481417012
vertex 23.125754918 -20.2622827163 -26.3674707012
vertex 31.096890918 -20.8061417163 1.18310129881
endloop
endfacet
facet normal 0.729242 -0.524549 -0.439381
outer loop
vertex 28.786120918 -18.2175537163 -29.2422717012
vertex 34.687788918 -10.9438427163 -28.1308697012
vertex 36.112017918 -12.8781237163 -23.4578557012
endloop
endfacet
facet normal 0.513993 -0.844363 -0.151204
outer loop
vertex 23.125754918 -20.2622827163 -26.3674707012
vertex 36.112017918 -12.8781237163 -23.4578557012
vertex 39.459807918 -11.9531487163 -17.2428557012
endloop
endfacet
facet normal 0.437114 -0.865344 0.245175
outer loop
vertex 23.125754918 -20.2622827163 -26.3674707012
vertex 28.786120918 -18.2175537163 -29.2422717012
vertex 36.112017918 -12.8781237163 -23.4578557012
endloop
endfacet
facet normal 0.556588 -0.825392 -0.094536
outer loop
vertex 14.468343918 -27.9235547163 -10.4481417012
vertex 16.131758918 -25.4522617163 -22.2315257012
vertex 23.125754918 -20.2622827163 -26.3674707012
endloop
endfacet
facet normal 0.741743 -0.644179 0.186684
outer loop
vertex -10.435368082 -13.0561267163 14.2810622988
vertex -15.192227082 -12.8591437163 33.8610342988
vertex -20.367159082 -24.2892637163 14.9810822988
endloop
endfacet
facet normal 0.892560 -0.261952 0.367039
outer loop
vertex -15.192227082 -12.8591437163 33.8610342988
vertex -7.10462208198 -3.85725871629 20.6182402988
vertex -12.367730082 -2.43722271629 34.4304612988
endloop
endfacet
facet normal 0.429993 -0.819707 0.378400
outer loop
vertex -15.192227082 -12.8591437163 33.8610342988
vertex -27.199223082 -24.8802077163 21.4645492988
vertex -20.367159082 -24.2892637163 14.9810822988
endloop
endfacet
facet normal 0.861973 -0.459556 0.214035
outer loop
vertex -15.192227082 -12.8591437163 33.8610342988
vertex -10.435368082 -13.0561267163 14.2810622988
vertex -7.10462208198 -3.85725871629 20.6182402988
endloop
endfacet
facet normal 0.934237 -0.115036 0.337592
outer loop
vertex 35.768736918 2.55599728371 12.8461102988
vertex 33.771677918 -7.78174171629 14.8500592988
vertex 43.135436918 -6.03271171629 -10.4668027012
endloop
endfacet
facet normal 0.958287 0.069315 0.277275
outer loop
vertex 38.985537918 11.6960132837 -0.556309701187
vertex 35.768736918 2.55599728371 12.8461102988
vertex 43.135436918 -6.03271171629 -10.4668027012
endloop
endfacet
facet normal 0.000000 0.000000 -1.000000
outer loop
vertex -20.490620082 8.13120528371 -31.0191007012
vertex -17.407010082 -6.63712171629 -31.0191007012
vertex -23.547997082 1.04988028371 -31.0191007012
endloop
endfacet
facet normal -0.147143 0.071303 -0.986542
outer loop
vertex -20.160035082 -12.3183547163 -31.0191007012
vertex -18.514439082 -8.56866571629 -30.9935307012
vertex -17.407010082 -6.63712171629 -31.0191007012
endloop
endfacet
facet normal 0.000000 0.000000 -1.000000
outer loop
vertex -17.407010082 -6.63712171629 -31.0191007012
vertex -20.490620082 8.13120528371 -31.0191007012
vertex -9.83273908198 11.4147732837 -31.0191007012
endloop
endfacet
facet normal 0.000000 0.000000 -1.000000
outer loop
vertex -9.83273908198 11.4147732837 -31.0191007012
vertex -0.876844081985 21.6175752837 -31.0191007012
vertex -17.407010082 -6.63712171629 -31.0191007012
endloop
endfacet
facet normal 0.000000 0.000000 -1.000000
outer loop
vertex -0.876844081985 21.6175752837 -31.0191007012
vertex -20.160035082 -12.3183547163 -31.0191007012
vertex -17.407010082 -6.63712171629 -31.0191007012
endloop
endfacet
facet normal 0.000000 0.000000 -1.000000
outer loop
vertex -0.876844081985 21.6175752837 -31.0191007012
vertex -9.83273908198 11.4147732837 -31.0191007012
vertex -6.92851708198 19.4438022837 -31.0191007012
endloop
endfacet
facet normal 0.712793 0.620032 -0.327850
outer loop
vertex 43.221381918 6.63060028371 -23.9751177012
vertex 46.672076918 6.14070028371 -17.3993227012
vertex 47.996668918 1.70306028371 -22.9119687012
endloop
endfacet
facet normal 0.798472 0.587965 0.129379
outer loop
vertex 48.729346918 2.32270328371 -12.7449307012
vertex 49.910597918 1.73222928371 -17.3516817012
vertex 46.672076918 6.14070028371 -17.3993227012
endloop
endfacet
facet normal -0.124151 -0.532050 0.837561
outer loop
vertex -7.10462208198 -3.85725871629 20.6182402988
vertex -10.435368082 -13.0561267163 14.2810622988
vertex 8.25857191802 -7.05912271629 20.8615602988
endloop
endfacet
facet normal -0.045113 -0.141311 0.988937
outer loop
vertex 21.418021918 0.936798283711 22.6044192988
vertex -7.10462208198 -3.85725871629 20.6182402988
vertex 8.25857191802 -7.05912271629 20.8615602988
endloop
endfacet
facet normal 0.182536 0.917566 0.353205
outer loop
vertex 33.801569918 12.1365442837 7.35731829881
vertex 12.767789918 14.0749782837 13.1918672988
vertex 25.544974918 10.6699942837 15.4341802988
endloop
endfacet
facet normal 0.027115 0.593912 0.804072
outer loop
vertex 21.418021918 0.936798283711 22.6044192988
vertex 12.767789918 14.0749782837 13.1918672988
vertex -3.95391908198 10.6547192837 16.2820772988
endloop
endfacet
facet normal 0.346851 0.456511 0.819324
outer loop
vertex 21.418021918 0.936798283711 22.6044192988
vertex 31.302559918 6.36229428371 15.3969382988
vertex 25.544974918 10.6699942837 15.4341802988
endloop
endfacet
facet normal 0.015119 0.588883 0.808077
outer loop
vertex 12.767789918 14.0749782837 13.1918672988
vertex 21.418021918 0.936798283711 22.6044192988
vertex 25.544974918 10.6699942837 15.4341802988
endloop
endfacet
facet normal 0.051779 0.937631 0.343754
outer loop
vertex -3.95391908198 10.6547192837 16.2820772988
vertex -2.07797208198 18.2363882837 -4.68042970119
vertex -15.170321082 14.8894812837 6.42073729881
endloop
endfacet
facet normal -0.210987 0.788013 0.578376
outer loop
vertex -25.101681082 7.66500128371 12.6408992988
vertex -3.95391908198 10.6547192837 16.2820772988
vertex -15.170321082 14.8894812837 6.42073729881
endloop
endfacet
facet normal 0.016522 -0.577856 0.815971
outer loop
vertex 10.322251918 -14.5500767163 15.5148122988
vertex 28.569952918 -12.6747787163 16.4733762988
vertex 8.25857191802 -7.05912271629 20.8615602988
endloop
endfacet
facet normal 0.064912 -0.875959 0.477999
outer loop
vertex 13.061817918 -20.0975337163 4.97676829881
vertex 28.569952918 -12.6747787163 16.4733762988
vertex 10.322251918 -14.5500767163 15.5148122988
endloop
endfacet
endsolid Exported from Blender-2.76 (sub 0)
